HIERARCHY
ROOT pelvis
{
	OFFSET 0.003123 -0.351407 0.012037
	CHANNELS 6 Xposition Yposition Zposition Zrotation Yrotation Xrotation 
	JOINT left_hip
	{
		OFFSET 0.058189 -0.092763 -0.026001
		CHANNELS 3 Zrotation Yrotation Xrotation
		JOINT left_knee
		{
			OFFSET 0.054695 -0.378753 -0.009396
			CHANNELS 3 Zrotation Yrotation Xrotation
			JOINT left_ankle
			{
				OFFSET -0.043453 -0.403059 -0.031876
				CHANNELS 3 Zrotation Yrotation Xrotation
				JOINT left_foot
				{
					OFFSET 0.047257 -0.057997 0.118216
					CHANNELS 3 Zrotation Yrotation Xrotation
					End Site
					{
						OFFSET 0.000000 0.000000 0.000000
					}
				}
			}
		}
	}
	JOINT right_hip
	{
		OFFSET -0.063267 -0.103908 -0.021250
		CHANNELS 3 Zrotation Yrotation Xrotation
		JOINT right_knee
		{
			OFFSET -0.044210 -0.362380 -0.016824
			CHANNELS 3 Zrotation Yrotation Xrotation
			JOINT right_ankle
			{
				OFFSET 0.015417 -0.410728 -0.020192
				CHANNELS 3 Zrotation Yrotation Xrotation
				JOINT right_foot
				{
					OFFSET -0.038812 -0.058328 0.119049
					CHANNELS 3 Zrotation Yrotation Xrotation
					End Site
					{
						OFFSET 0.000000 0.000000 0.000000
					}
				}
			}
		}
	}
	JOINT spine_1
	{
		OFFSET -0.002763 0.109891 -0.027618
		CHANNELS 3 Zrotation Yrotation Xrotation
		JOINT spine_2
		{
			OFFSET 0.009448 0.131853 -0.005940
			CHANNELS 3 Zrotation Yrotation Xrotation
			JOINT spine_3
			{
				OFFSET -0.011330 0.052235 0.028447
				CHANNELS 3 Zrotation Yrotation Xrotation
				JOINT neck
				{
					OFFSET -0.012164 0.165167 -0.031615
					CHANNELS 3 Zrotation Yrotation Xrotation
					JOINT head
					{
						OFFSET 0.024783 0.160452 0.020737
						CHANNELS 3 Zrotation Yrotation Xrotation
						End Site
						{
							OFFSET 0.000000 0.000000 0.000000
						}
					}
				}
				JOINT left_collar
				{
					OFFSET 0.046364 0.084944 -0.007220
					CHANNELS 3 Zrotation Yrotation Xrotation
					JOINT left_shoulder
					{
						OFFSET 0.119239 0.057728 -0.015461
						CHANNELS 3 Zrotation Yrotation Xrotation
						JOINT left_elbow
						{
							OFFSET 0.254123 -0.072151 -0.042459
							CHANNELS 3 Zrotation Yrotation Xrotation
							JOINT left_wrist
							{
								OFFSET 0.251987 0.023221 -0.002472
								CHANNELS 3 Zrotation Yrotation Xrotation
								JOINT left_index_1
								{
									OFFSET 0.101902 -0.008688 0.019351
									CHANNELS 3 Zrotation Yrotation Xrotation
									JOINT left_index_2
									{
										OFFSET 0.030149 -0.011154 0.001151
										CHANNELS 3 Zrotation Yrotation Xrotation
										JOINT left_index_3
										{
											OFFSET 0.006504 -0.021577 -0.002433
											CHANNELS 3 Zrotation Yrotation Xrotation
											End Site
											{
												OFFSET 0.000000 0.000000 0.000000
											}
										}
									}
								}
								JOINT left_middle_1
								{
									OFFSET 0.109398 -0.006328 -0.003981
									CHANNELS 3 Zrotation Yrotation Xrotation
									JOINT left_middle_2
									{
										OFFSET 0.026472 -0.015218 -0.004641
										CHANNELS 3 Zrotation Yrotation Xrotation
										JOINT left_middle_3
										{
											OFFSET 0.005022 -0.023347 -0.001911
											CHANNELS 3 Zrotation Yrotation Xrotation
											End Site
											{
												OFFSET 0.000000 0.000000 0.000000
											}
										}
									}
								}
								JOINT left_pinky_1
								{
									OFFSET 0.084047 -0.014539 -0.043750
									CHANNELS 3 Zrotation Yrotation Xrotation
									JOINT left_pinky_2
									{
										OFFSET 0.012124 -0.014448 -0.005375
										CHANNELS 3 Zrotation Yrotation Xrotation
										JOINT left_pinky_3
										{
											OFFSET 0.003798 -0.018853 0.000167
											CHANNELS 3 Zrotation Yrotation Xrotation
											End Site
											{
												OFFSET 0.000000 0.000000 0.000000
											}
										}
									}
								}
								JOINT left_ring_1
								{
									OFFSET 0.097444 -0.009268 -0.027345
									CHANNELS 3 Zrotation Yrotation Xrotation
									JOINT left_ring_2
									{
										OFFSET 0.023561 -0.016057 -0.001895
										CHANNELS 3 Zrotation Yrotation Xrotation
										JOINT left_ring_3
										{
											OFFSET 0.004257 -0.023548 0.000814
											CHANNELS 3 Zrotation Yrotation Xrotation
											End Site
											{
												OFFSET 0.000000 0.000000 0.000000
											}
										}
									}
								}
								JOINT left_thumb_1
								{
									OFFSET 0.040636 -0.017977 0.025611
									CHANNELS 3 Zrotation Yrotation Xrotation
									JOINT left_thumb_2
									{
										OFFSET 0.021637 -0.017639 0.011623
										CHANNELS 3 Zrotation Yrotation Xrotation
										JOINT left_thumb_3
										{
											OFFSET 0.024002 -0.008356 0.006548
											CHANNELS 3 Zrotation Yrotation Xrotation
											End Site
											{
												OFFSET 0.000000 0.000000 0.000000
											}
										}
									}
								}
							}
						}
					}
				}
				JOINT right_collar
				{
					OFFSET -0.047695 0.084339 -0.013400
					CHANNELS 3 Zrotation Yrotation Xrotation
					JOINT right_shoulder
					{
						OFFSET -0.102578 0.053524 -0.012669
						CHANNELS 3 Zrotation Yrotation Xrotation
						JOINT right_elbow
						{
							OFFSET -0.271150 -0.036492 -0.026467
							CHANNELS 3 Zrotation Yrotation Xrotation
							JOINT right_wrist
							{
								OFFSET -0.249267 -0.004533 -0.015325
								CHANNELS 3 Zrotation Yrotation Xrotation
								JOINT right_index_1
								{
									OFFSET -0.099881 -0.011783 0.019600
									CHANNELS 3 Zrotation Yrotation Xrotation
									JOINT right_index_2
									{
										OFFSET -0.030148 -0.011154 0.001151
										CHANNELS 3 Zrotation Yrotation Xrotation
										JOINT right_index_3
										{
											OFFSET -0.006505 -0.021577 -0.002432
											CHANNELS 3 Zrotation Yrotation Xrotation
											End Site
											{
												OFFSET 0.000000 0.000000 0.000000
											}
										}
									}
								}
								JOINT right_middle_1
								{
									OFFSET -0.107376 -0.009422 -0.003734
									CHANNELS 3 Zrotation Yrotation Xrotation
									JOINT right_middle_2
									{
										OFFSET -0.026472 -0.015218 -0.004641
										CHANNELS 3 Zrotation Yrotation Xrotation
										JOINT right_middle_3
										{
											OFFSET -0.005022 -0.023347 -0.001911
											CHANNELS 3 Zrotation Yrotation Xrotation
											End Site
											{
												OFFSET 0.000000 0.000000 0.000000
											}
										}
									}
								}
								JOINT right_pinky_1
								{
									OFFSET -0.082027 -0.017634 -0.043503
									CHANNELS 3 Zrotation Yrotation Xrotation
									JOINT right_pinky_2
									{
										OFFSET -0.012123 -0.014448 -0.005374
										CHANNELS 3 Zrotation Yrotation Xrotation
										JOINT right_pinky_3
										{
											OFFSET -0.003798 -0.018852 0.000167
											CHANNELS 3 Zrotation Yrotation Xrotation
											End Site
											{
												OFFSET 0.000000 0.000000 0.000000
											}
										}
									}
								}
								JOINT right_ring_1
								{
									OFFSET -0.095423 -0.012362 -0.027099
									CHANNELS 3 Zrotation Yrotation Xrotation
									JOINT right_ring_2
									{
										OFFSET -0.023561 -0.016057 -0.001895
										CHANNELS 3 Zrotation Yrotation Xrotation
										JOINT right_ring_3
										{
											OFFSET -0.004257 -0.023548 0.000816
											CHANNELS 3 Zrotation Yrotation Xrotation
											End Site
											{
												OFFSET 0.000000 0.000000 0.000000
											}
										}
									}
								}
								JOINT right_thumb_1
								{
									OFFSET -0.038613 -0.021074 0.025861
									CHANNELS 3 Zrotation Yrotation Xrotation
									JOINT right_thumb_2
									{
										OFFSET -0.021636 -0.017639 0.011623
										CHANNELS 3 Zrotation Yrotation Xrotation
										JOINT right_thumb_3
										{
											OFFSET -0.024004 -0.008353 0.006547
											CHANNELS 3 Zrotation Yrotation Xrotation
											End Site
											{
												OFFSET 0.000000 0.000000 0.000000
											}
										}
									}
								}
							}
						}
					}
				}
			}
		}
	}
}
MOTION
Frames: 7
Frame Time: 0.050000
-0.000209 0.914427 0.016426 1.500958 -0.647766 -11.325740 2.989010 1.497690 12.426475 -2.325759 -0.253224 5.080407 4.286009 1.184554 -9.890232 0.000000 0.000000 0.000000 -4.831534 -0.754566 11.583794 5.576987 -0.396695 10.259641 -6.159288 -3.432042 -15.679819 0.000000 0.000000 0.000000 -0.120904 -0.858703 12.504987 -7.291053 -0.014096 -14.191471 7.539445 -0.680809 25.530795 1.268097 0.519258 -4.747781 0.000000 0.000000 0.000000 -7.750254 -5.639124 2.515044 -56.887244 -12.043771 -7.508820 -14.614567 -33.910600 8.115538 -7.690225 5.528533 18.945603 -19.742564 3.252781 0.388828 -15.338003 12.155080 14.146539 0.000000 0.000000 0.000000 -18.114723 -0.550763 -4.148370 -31.277084 5.889599 -0.722665 0.000000 0.000000 0.000000 -3.122624 -13.019246 -11.550623 -57.940188 -12.674178 -23.034205 0.000000 0.000000 0.000000 -19.404258 -2.692550 -3.749983 -49.262514 -3.595384 -11.485477 0.000000 0.000000 0.000000 -0.378923 30.862113 30.412078 6.326567 -14.444436 -7.686600 0.000000 0.000000 0.000000 1.003414 1.104209 0.482398 60.023874 9.817346 -3.734061 19.044538 34.634477 4.579305 9.093920 -2.032514 26.788080 19.053608 -0.892451 -0.621530 6.421819 -5.937751 7.693508 0.000000 0.000000 0.000000 12.415110 7.133263 -6.075190 37.457024 -4.808320 -8.375728 0.000000 0.000000 0.000000 -24.275475 33.545483 -24.610755 46.054463 28.958586 -48.217952 0.000000 0.000000 0.000000 10.392303 11.435237 -6.504634 55.142093 6.353672 -20.548695 0.000000 0.000000 0.000000 -6.160291 -30.610678 30.444188 1.992978 16.224614 -4.487802 0.000000 0.000000 0.000000 
0.000262 0.914709 0.016426 1.391454 -0.547778 -11.088457 3.239918 1.424410 12.098385 -2.631849 -0.223232 5.177274 4.214076 1.074323 -9.793588 0.000000 0.000000 0.000000 -4.717277 -0.782664 11.721519 5.568484 -0.390596 9.560646 -6.086596 -3.467378 -15.416918 0.000000 0.000000 0.000000 -0.029416 -0.867174 12.562713 -7.360079 -0.027819 -14.362429 7.523718 -0.746409 25.318867 1.043800 0.521726 -4.561690 0.000000 0.000000 0.000000 -7.908747 -5.797439 2.598168 -56.056608 -12.255835 -7.417330 -15.149965 -33.121373 8.051498 -7.586696 5.222920 19.112806 -19.945834 3.529714 0.439453 -18.470570 13.594446 14.208592 0.000000 0.000000 0.000000 -18.440763 0.417375 -3.829628 -35.489306 6.614389 -1.100177 0.000000 0.000000 0.000000 -2.368949 -14.347272 -11.797548 -61.979953 -12.004564 -20.481519 0.000000 0.000000 0.000000 -19.181431 -3.935107 -4.190286 -54.125347 -2.439959 -8.904964 0.000000 0.000000 0.000000 -0.086482 30.648531 30.376046 7.459830 -14.537418 -8.233290 0.000000 0.000000 0.000000 1.098185 1.631099 0.751516 59.788088 9.255167 -3.948107 19.717920 35.103409 4.843931 7.781093 -1.950223 27.251969 19.150252 -0.916294 -0.651017 6.828900 -6.131428 7.942798 0.000000 0.000000 0.000000 12.131196 6.732643 -5.815514 34.474555 -4.692336 -7.634425 0.000000 0.000000 0.000000 -23.894672 30.417933 -20.967834 47.729751 33.353715 -48.891333 0.000000 0.000000 0.000000 8.489846 11.988129 -6.812685 55.315935 4.807615 -18.025530 0.000000 0.000000 0.000000 -6.028178 -30.473039 30.172240 0.092523 16.018039 -5.322572 0.000000 0.000000 0.000000 
-0.000091 0.914911 0.016426 1.425671 -0.520251 -11.336529 3.138104 1.472058 12.394898 -2.426536 -0.245693 5.128842 4.182284 1.025784 -9.754068 0.000000 0.000000 0.000000 -4.316390 -0.863515 12.061230 4.821046 -0.290462 9.458374 -6.135224 -3.580900 -15.465961 0.000000 0.000000 0.000000 -0.095811 -0.889721 12.950041 -7.302595 -0.069903 -14.436260 7.504214 -1.306541 25.601904 1.105445 0.485853 -4.440729 0.000000 0.000000 0.000000 -7.783713 -5.284605 2.355994 -56.541587 -12.211750 -7.373988 -14.939411 -33.272199 8.055163 -7.506163 4.194624 18.962029 -19.957761 3.870569 0.543868 -15.510666 12.790703 14.949493 0.000000 0.000000 0.000000 -19.693848 0.432073 -4.092632 -34.474255 6.606986 -0.621517 0.000000 0.000000 0.000000 -5.001079 -16.002920 -13.643274 -58.652616 -14.169504 -24.076759 0.000000 0.000000 0.000000 -18.467928 -3.150504 -3.773930 -54.450744 -5.454131 -13.387246 0.000000 0.000000 0.000000 -2.223790 31.625611 30.870239 8.366599 -14.023756 -8.491289 0.000000 0.000000 0.000000 0.385608 1.817961 0.912565 60.165649 9.882722 -3.852359 19.909980 35.288740 4.916625 7.053043 -2.304982 26.426993 19.610887 -0.596107 -0.724476 4.143332 -5.247407 8.078370 0.000000 0.000000 0.000000 12.479824 7.507267 -6.245584 33.738046 -4.205254 -7.845727 0.000000 0.000000 0.000000 -21.738741 28.340345 -19.188902 38.881032 30.226833 -55.716522 0.000000 0.000000 0.000000 9.510618 11.201841 -6.423158 54.371599 4.540155 -17.493877 0.000000 0.000000 0.000000 -6.515274 -30.898621 30.704682 0.370690 16.739183 -5.398471 0.000000 0.000000 0.000000 
-0.000091 0.914629 0.015106 1.475023 -1.056131 -11.583100 3.007766 1.538377 12.684995 -2.370941 -0.240230 5.041081 4.344752 1.505229 -9.770003 0.000000 0.000000 0.000000 -4.642060 -0.797891 11.970694 5.159040 -0.327250 9.829339 -6.054318 -3.031715 -15.649949 0.000000 0.000000 0.000000 0.085986 -0.924311 13.302785 -7.634397 0.023668 -14.501526 7.829300 -0.570353 25.263376 1.291090 0.440308 -4.284698 0.000000 0.000000 0.000000 -7.827799 -5.537418 2.463805 -57.151853 -12.041763 -7.492865 -14.555918 -33.665475 8.032326 -7.292688 5.016281 18.939867 -21.373244 4.424354 0.543117 -14.046383 10.806541 12.742359 0.000000 0.000000 0.000000 -20.814555 1.119283 -4.116433 -32.120429 4.668361 -3.097229 0.000000 0.000000 0.000000 -0.379983 -15.257565 -12.281775 -61.385154 -13.934094 -22.970690 0.000000 0.000000 0.000000 -19.439938 -2.159672 -3.522435 -52.940349 -4.781356 -12.637205 0.000000 0.000000 0.000000 -1.446370 32.208499 31.586025 8.185413 -15.502608 -9.003270 0.000000 0.000000 0.000000 0.670214 1.327069 0.629764 60.089123 9.932568 -3.721296 19.664777 34.779999 4.763380 8.210229 -3.023404 26.442897 18.402962 -2.405089 -0.093949 8.629055 -6.449842 7.379492 0.000000 0.000000 0.000000 12.388891 6.486127 -5.725399 36.816512 -6.244339 -5.744105 0.000000 0.000000 0.000000 -26.879579 31.176444 -23.670366 45.412733 34.563165 -51.795566 0.000000 0.000000 0.000000 7.393740 10.608329 -5.994208 59.763234 7.959929 -20.804327 0.000000 0.000000 0.000000 -7.772179 -31.416838 31.603289 1.181096 15.941267 -4.720382 0.000000 0.000000 0.000000 
-0.000327 0.914387 0.016426 1.481719 -0.638875 -11.329856 3.014307 1.448546 12.049250 -2.353610 -0.310539 5.767908 4.371673 1.297583 -9.999782 0.000000 0.000000 0.000000 -4.716471 -0.770941 11.597416 5.432317 -0.376531 10.248761 -6.180031 -3.471334 -15.712236 0.000000 0.000000 0.000000 -0.131437 -0.858872 12.511339 -7.209588 -0.039929 -14.164768 7.364360 -1.231637 25.707250 1.225399 0.517579 -4.752131 0.000000 0.000000 0.000000 -7.734546 -5.237631 2.335826 -57.080542 -11.816248 -7.492895 -14.498329 -34.162969 8.175847 -7.255105 5.178040 18.253312 -20.973552 4.111559 0.541275 -12.950615 11.137719 14.418535 0.000000 0.000000 0.000000 -18.730437 0.719281 -3.749403 -29.786623 5.886268 0.255319 0.000000 0.000000 0.000000 -1.046037 -13.473914 -11.445197 -59.873273 -14.702069 -24.293554 0.000000 0.000000 0.000000 -18.370713 -2.763681 -3.593103 -50.596231 -4.177444 -11.744061 0.000000 0.000000 0.000000 -0.829342 31.401344 30.820125 6.155083 -14.553740 -7.647837 0.000000 0.000000 0.000000 0.923543 1.551090 0.722792 60.012925 10.298637 -3.688898 18.862262 34.657555 4.515692 8.913875 -2.616764 26.860471 19.260680 -1.022087 -0.625331 8.229693 -5.996796 6.736125 0.000000 0.000000 0.000000 13.200275 7.590773 -6.466863 37.785196 -5.059342 -8.040969 0.000000 0.000000 0.000000 -27.194765 32.053916 -24.212199 44.110626 32.210020 -51.919166 0.000000 0.000000 0.000000 9.053057 12.372764 -7.061107 54.514047 7.369073 -22.031385 0.000000 0.000000 0.000000 -4.829150 -30.731710 30.337378 -1.418552 15.242351 -5.757120 0.000000 0.000000 0.000000 
0.000027 0.914709 0.017746 1.386387 -0.534208 -10.846010 3.121381 1.422843 11.989852 -2.399640 -0.241331 5.039874 4.232201 1.113485 -9.801785 0.000000 0.000000 0.000000 -4.668550 -0.780077 11.624691 5.542085 -0.385682 9.412830 -6.090871 -3.501195 -15.401339 0.000000 0.000000 0.000000 0.072086 -0.816649 11.772401 -7.354015 0.056898 -14.044811 7.468087 -0.785550 25.576880 0.989529 0.545643 -4.672606 0.000000 0.000000 0.000000 -7.888043 -6.188010 2.829503 -56.206707 -12.148640 -7.454829 -14.825489 -33.556268 8.073772 -7.429992 5.274943 18.658975 -19.571306 3.569012 0.508855 -17.187259 13.545007 15.171479 0.000000 0.000000 0.000000 -17.816156 0.293560 -3.710123 -34.935767 6.914484 -0.205402 0.000000 0.000000 0.000000 -3.295937 -11.832809 -10.353227 -61.275608 -10.376601 -18.539851 0.000000 0.000000 0.000000 -19.723641 -2.237481 -3.586513 -52.475285 -3.552913 -10.614617 0.000000 0.000000 0.000000 -0.113950 31.436300 31.065987 7.136231 -14.971186 -8.261587 0.000000 0.000000 0.000000 1.145816 1.440760 0.647124 59.844924 9.218057 -3.981540 19.759216 34.959605 4.831334 7.139674 -1.904885 27.181819 20.085092 -0.351262 -0.890835 6.785820 -6.169038 8.109962 0.000000 0.000000 0.000000 12.535881 7.029743 -6.022294 35.310533 -4.845883 -7.495084 0.000000 0.000000 0.000000 -25.060978 28.845059 -19.722384 45.975359 33.967245 -50.906053 0.000000 0.000000 0.000000 10.238433 11.083704 -6.362928 55.567809 5.906924 -19.477828 0.000000 0.000000 0.000000 -6.178607 -30.829739 30.569719 1.731078 16.038781 -4.498563 0.000000 0.000000 0.000000 
-0.000091 0.914951 0.017746 1.459639 -0.515486 -10.869816 2.966202 1.396758 11.636883 -2.282878 -0.316150 5.709947 4.282405 1.231261 -9.808915 0.000000 0.000000 0.000000 -4.368379 -0.854763 12.078597 4.872605 -0.293921 8.656263 -6.079043 -3.539493 -15.323619 0.000000 0.000000 0.000000 0.027587 -0.817177 11.810399 -7.311288 0.038153 -14.050849 7.560996 -0.822231 25.567994 1.139363 0.400856 -3.893515 0.000000 0.000000 0.000000 -7.741557 -6.137171 2.805897 -56.781717 -12.235257 -7.453832 -14.430182 -33.385938 7.911179 -7.498396 4.530259 18.646578 -20.402874 4.442529 0.655418 -13.557683 12.095720 15.269630 0.000000 0.000000 0.000000 -19.804913 0.973041 -3.910750 -32.698488 5.370425 -1.975991 0.000000 0.000000 0.000000 -1.259452 -12.558902 -10.311255 -61.389832 -15.089647 -24.674912 0.000000 0.000000 0.000000 -18.376151 -2.254731 -3.401769 -53.496275 -3.661265 -10.748362 0.000000 0.000000 0.000000 -0.671294 31.642816 31.150498 6.961182 -15.324182 -8.323570 0.000000 0.000000 0.000000 0.527096 1.330373 0.645925 60.108251 9.243099 -3.977750 19.726814 35.196225 4.866538 8.313956 -2.573722 27.030426 18.005873 -1.080331 -0.484641 5.101350 -4.780569 6.500902 0.000000 0.000000 0.000000 11.192264 7.269152 -5.943303 34.080384 -3.947290 -8.920059 0.000000 0.000000 0.000000 -23.822896 29.391519 -21.752043 46.489887 29.466358 -47.221866 0.000000 0.000000 0.000000 7.680206 12.822763 -7.321462 52.184111 4.881961 -19.046217 0.000000 0.000000 0.000000 -6.301915 -30.360333 30.180842 0.240670 16.059764 -5.234127 0.000000 0.000000 0.000000 
